<svg xmlns="http://www.w3.org/2000/svg" version="1.1" xmlns:xlink="http://www.w3.org/1999/xlink" xmlns:svgjs="http://svgjs.dev/svgjs" width="1000" height="1125" viewBox="0 0 1000 1125"><g transform="matrix(1,0,0,1,0.0005762637636053114,0)"><svg viewBox="0 0 320 360" data-background-color="#4d331f" preserveAspectRatio="xMidYMid meet" height="1125" width="1000" xmlns="http://www.w3.org/2000/svg" xmlns:xlink="http://www.w3.org/1999/xlink"><g id="tight-bounds" transform="matrix(1,0,0,1,0.00018440440442191175,0)"><svg viewBox="0 0 320 360" height="360" width="320"><g><svg></svg></g><g><svg viewBox="0 0 320 360" height="360" width="320"><g><path d="M294.684 112.125c-8.775-10.699-25.381-16.201-43-22.006-7.56-2.498-15.357-5.097-22.985-8.235-7.695-3.173-15.256-7.257-22.613-11.172-14.952-8.033-30.41-16.336-46.105-16.336-15.661 0-31.119 8.303-46.071 16.336-7.358 3.949-14.952 8.033-22.648 11.205-7.594 3.139-15.425 5.704-22.985 8.236-17.618 5.839-34.224 11.341-42.999 22.006-11.712 14.277-11.442 35.439-11.172 57.817 0.034 3.375 0.068 6.717 0.067 10.024 0 3.308-0.034 6.649-0.101 10.024-0.27 22.411-0.54 43.54 11.172 57.851 8.775 10.666 25.381 16.167 42.966 22.006 7.56 2.498 15.357 5.097 23.019 8.235 7.695 3.173 15.256 7.223 22.579 11.172 14.986 8.067 30.444 16.37 46.105 16.37 15.695 0 31.153-8.303 46.105-16.336 7.358-3.949 14.918-8.033 22.614-11.172 7.594-3.139 15.357-5.704 22.884-8.202 17.72-5.873 34.326-11.374 43.101-22.039 11.712-14.277 11.442-35.439 11.171-57.817-0.034-3.409-0.101-6.75-0.101-10.058 0-3.308 0.034-6.649 0.101-9.991 0.371-22.479 0.641-43.641-11.104-57.918zM305.552 103.215c-15.728-19.171-45.801-23.727-71.486-34.326-22.985-9.45-46.375-28.588-74.051-28.587-27.676 0-51.066 19.137-74.052 28.587-25.719 10.598-55.758 15.155-71.486 34.326-17.078 20.791-14.311 50.121-14.311 76.785 0 26.63-2.768 55.994 14.277 76.785 15.728 19.171 45.801 23.727 71.487 34.326 22.985 9.484 46.375 28.588 74.051 28.587 27.676 0 51.066-19.103 74.051-28.587 25.719-10.598 55.758-15.155 71.486-34.326 17.045-20.791 14.277-50.121 14.277-76.785 0.068-26.664 2.835-55.994-14.243-76.785zM309.872 189.923c0.304 23.221 0.574 45.059-12.083 60.483-9.518 11.577-26.664 17.281-44.822 23.289-7.56 2.498-15.29 5.063-22.715 8.134-7.493 3.071-14.952 7.088-22.175 10.969-15.458 8.303-31.355 16.842-48.062 16.842-16.707 0-32.604-8.539-47.995-16.808-7.257-3.915-14.75-7.932-22.243-11.003-7.527-3.105-15.256-5.67-22.748-8.134-18.192-6.008-35.338-11.712-44.823-23.289-12.623-15.391-12.353-37.262-12.083-60.415 0.034-3.375 0.101-6.683 0.101-9.991 0-3.308-0.034-6.615-0.067-9.991-0.304-23.154-0.574-45.025 12.083-60.415 9.518-11.577 26.664-17.247 44.822-23.289 7.527-2.498 15.256-5.063 22.749-8.134 7.493-3.105 14.986-7.122 22.242-11.003 15.391-8.269 31.322-16.842 47.995-16.842 16.673 0 32.604 8.539 47.995 16.808 7.257 3.915 14.75 7.932 22.243 11.003 7.493 3.105 15.256 5.637 22.715 8.134 18.158 6.008 35.338 11.712 44.822 23.289 12.657 15.425 12.387 37.262 12.083 60.416-0.034 3.409-0.101 6.717-0.101 9.99 0 3.308 0.034 6.615 0.067 9.957z" fill="#d9bca9" fill-rule="nonzero" stroke="none" stroke-width="1" stroke-linecap="butt" stroke-linejoin="miter" stroke-miterlimit="10" stroke-dasharray="" stroke-dashoffset="0" font-family="none" font-weight="none" font-size="none" text-anchor="none" style="mix-blend-mode: normal" data-fill-palette-color="tertiary"></path></g><g transform="matrix(1,0,0,1,64.00000000000001,114.65854494172)"><svg viewBox="0 0 191.99999999999997 130.68291011656" height="130.68291011656" width="191.99999999999997"><g><svg viewBox="0 0 192.95999999999998 131.3363246671428" height="130.68291011656" width="191.99999999999997"><g><svg viewBox="0 0 192.95999999999998 131.3363246671428" height="131.3363246671428" width="192.95999999999998"><g id="textblocktransform"><svg viewBox="0 0 192.95999999999998 131.3363246671428" height="131.3363246671428" width="192.95999999999998" id="textblock"><g><rect width="192.95999999999998" height="8.159524702974046" x="0" y="100.09139485312977" fill="#4d331f" opacity="1" stroke-width="0" stroke="transparent" fill-opacity="1" class="rect-r$-0" data-fill-palette-color="quaternary" rx="1%" id="r$-0" data-palette-color="#4d331f"></rect></g><g transform="matrix(1,0,0,1,0.47999999999998977,0)"><svg viewBox="0 0 192 90.4793893129771" height="90.4793893129771" width="192"><g transform="matrix(1,0,0,1,0,0)"><svg width="192" viewBox="2.15 -36.3 98.24 46.3" height="90.4793893129771" data-palette-color="#4d331f"><path d="M15.35 0.8Q11.6 0.8 8.05-1.07 4.5-2.95 2.15-6.15L2.15-6.15 5.2-8.85Q7-6 9.8-4.33 12.6-2.65 15.85-2.65L15.85-2.65Q19.4-2.65 21.25-4.23 23.1-5.8 23.1-8.5L23.1-8.5Q23.1-11.45 21.13-13.03 19.15-14.6 14.85-15.8L14.85-15.8Q4.05-18.45 4.05-25.6L4.05-25.6Q4.05-30.05 6.95-32.45 9.85-34.85 15-34.85L15-34.85Q18.75-34.85 21.73-33.45 24.7-32.05 27.05-29.15L27.05-29.15 24.1-26.65Q22.3-29.1 20.15-30.28 18-31.45 15-31.45L15-31.45Q11.85-31.45 9.85-29.98 7.85-28.5 7.85-25.95L7.85-25.95Q7.85-23.35 9.7-21.83 11.55-20.3 15.95-19.25L15.95-19.25Q21.15-17.85 24.03-15.4 26.9-12.95 26.9-8.5L26.9-8.5Q26.9-5.75 25.5-3.65 24.1-1.55 21.48-0.38 18.85 0.8 15.35 0.8L15.35 0.8ZM36.95 0L33.55 0 33.55-20.3 29.55-20.3 29.55-23.4 33.55-23.4 33.55-31.15 36.95-31.15 36.95-23.4 42.35-23.4 42.35-20.3 36.95-20.3 36.95 0ZM54.7-4L62.15-23.4 65.34-23.4 52.7 10 49.3 10 53 0.45 43.4-23.4 46.95-23.4 54.7-4ZM72.14 0L68.74 0 68.74-36.3 72.14-36.3 72.14 0ZM88.84 0.8Q85.49 0.8 82.84-0.8 80.19-2.4 78.69-5.28 77.19-8.15 77.19-11.75L77.19-11.75Q77.19-15.35 78.67-18.18 80.14-21 82.77-22.6 85.39-24.2 88.74-24.2L88.74-24.2Q92.09-24.2 94.74-22.6 97.39-21 98.89-18.15 100.39-15.3 100.39-11.7L100.39-11.7Q100.39-8.1 98.92-5.25 97.44-2.4 94.82-0.8 92.19 0.8 88.84 0.8L88.84 0.8ZM88.74-2.3Q91.14-2.3 93.02-3.5 94.89-4.7 95.94-6.85 96.99-9 96.99-11.7L96.99-11.7Q96.99-14.4 95.94-16.55 94.89-18.7 93.02-19.9 91.14-21.1 88.74-21.1L88.74-21.1Q86.39-21.1 84.54-19.9 82.69-18.7 81.64-16.57 80.59-14.45 80.59-11.75L80.59-11.75Q80.59-9 81.64-6.85 82.69-4.7 84.54-3.5 86.39-2.3 88.74-2.3L88.74-2.3Z" opacity="1" transform="matrix(1,0,0,1,0,0)" fill="#4d331f" class="wordmark-text-0" data-fill-palette-color="quaternary" id="text-0"></path></svg></g></svg></g><g transform="matrix(1,0,0,1,37.15199999999999,117.86292509625648)"><svg viewBox="0 0 118.656 13.473399570886288" height="13.473399570886288" width="118.656"><g transform="matrix(1,0,0,1,0,0)"><svg width="118.656" viewBox="1.25 -33.95 302.92 34.400000000000006" height="13.473399570886288" data-palette-color="#4d331f"><path d="M16.1 0.3L16.1 0.3Q14.3-4.55 12.48-9.28 10.65-14 8.95-18.3 7.25-22.6 5.75-26.05L5.75-26.05Q4.7-28.5 4.1-29.7 3.5-30.9 2.95-31.3 2.4-31.7 1.5-31.8L1.5-31.8Q1.35-32.4 1.3-32.98 1.25-33.55 1.25-33.95L1.25-33.95Q1.75-33.9 2.45-33.88 3.15-33.85 3.98-33.83 4.8-33.8 5.65-33.8 6.5-33.8 7.3-33.8L7.3-33.8Q8.9-33.8 10.43-33.85 11.95-33.9 13.35-33.95L13.35-33.95Q13.35-33.5 13.28-32.93 13.2-32.35 13.1-31.8L13.1-31.8Q11.45-31.7 10.65-31.28 9.85-30.85 9.98-29.73 10.1-28.6 11.1-26.3L11.1-26.3Q12.45-23.1 13.75-19.8 15.05-16.5 16.32-13.13 17.6-9.75 18.9-6.15L18.9-6.15 18.15-6.15Q19.6-9.4 20.93-12.6 22.25-15.8 23.53-19.07 24.8-22.35 26-25.7L26-25.7Q26.95-28.5 26.58-30.03 26.2-31.55 23.95-31.8L23.95-31.8Q23.8-32.35 23.75-32.95 23.7-33.55 23.7-33.95L23.7-33.95Q24.45-33.9 25.13-33.88 25.8-33.85 26.5-33.83 27.2-33.8 27.95-33.8L27.95-33.8Q29.1-33.8 30.53-33.85 31.95-33.9 33.05-33.95L33.05-33.95Q33.05-33.4 33-32.88 32.95-32.35 32.8-31.8L32.8-31.8Q31.25-31.45 30.35-29.93 29.45-28.4 28.5-25.9L28.5-25.9Q26-19.45 23.38-12.95 20.75-6.45 18.05 0.1L18.05 0.1Q17.55 0.2 17.13 0.25 16.7 0.3 16.1 0.3ZM46.9 0.45L46.9 0.45Q43.35 0.45 41-1.15 38.65-2.75 37.47-5.48 36.3-8.2 36.3-11.45L36.3-11.45Q36.3-14.65 37.55-17.35 38.8-20.05 41.12-21.7 43.45-23.35 46.65-23.35L46.65-23.35Q49.9-23.35 51.87-21.95 53.85-20.55 54.82-18.2 55.8-15.85 56-13L56-13Q55.8-12 55.25-11.3L55.25-11.3Q54.4-11.3 52.7-11.3 51-11.3 48.85-11.28 46.7-11.25 44.45-11.18 42.2-11.1 40.2-11L40.2-11 40.2-13.55 50.8-13.55Q50.8-16.85 49.6-18.9 48.4-20.95 46.2-20.95L46.2-20.95Q45-20.95 43.85-20.23 42.7-19.5 41.95-17.68 41.2-15.85 41.2-12.5L41.2-12.5Q41.2-10.05 41.82-7.73 42.45-5.4 44.02-3.88 45.6-2.35 48.5-2.35L48.5-2.35Q50.15-2.35 51.75-3.1 53.35-3.85 54.6-5.25L54.6-5.25Q55-5.05 55.37-4.58 55.75-4.1 55.8-3.7L55.8-3.7Q54.1-1.45 51.87-0.5 49.65 0.45 46.9 0.45ZM75.75-21.6L75.75-21.6Q75.7-20.4 75.67-19.05 75.65-17.7 75.85-16.4L75.85-16.4Q75.35-16.1 74.7-15.95 74.05-15.8 73.35-15.8L73.35-15.8Q73.25-17.2 72.52-18.45 71.8-19.7 70.6-20.5 69.4-21.3 67.75-21.3L67.75-21.3Q66.2-21.3 65.27-20.55 64.35-19.8 64.35-18.55L64.35-18.55Q64.35-17.7 64.72-17.05 65.1-16.4 66.37-15.68 67.65-14.95 70.3-13.9L70.3-13.9Q73-12.9 74.55-11.9 76.1-10.9 76.75-9.65 77.4-8.4 77.4-6.6L77.4-6.6Q77.4-4.5 76.2-2.9 75-1.3 72.92-0.43 70.85 0.45 68.25 0.45L68.25 0.45Q65.25 0.45 63.47-0.03 61.7-0.5 60-1.4L60-1.4Q60.1-2.2 60.12-3.35 60.15-4.5 60.15-5.65 60.15-6.8 60.05-7.6L60.05-7.6Q60.45-7.9 61.17-8.03 61.9-8.15 62.65-8.15L62.65-8.15Q63.05-5 64.6-3.45 66.15-1.9 68.75-1.9L68.75-1.9Q70.8-1.9 71.92-2.8 73.05-3.7 73.05-5.1L73.05-5.1Q73.05-6 72.62-6.65 72.2-7.3 71.05-7.95 69.9-8.6 67.65-9.5L67.65-9.5Q64.95-10.6 63.32-11.55 61.7-12.5 60.97-13.8 60.25-15.1 60.25-17.1L60.25-17.1Q60.25-18.7 61.05-19.88 61.85-21.05 63.12-21.83 64.4-22.6 65.85-22.98 67.3-23.35 68.55-23.35L68.55-23.35Q70.8-23.35 72.5-22.9 74.2-22.45 75.75-21.6ZM89.79 0.45L89.79 0.45Q86.84 0.45 85.42-1.07 83.99-2.6 83.99-6L83.99-6 83.99-19.55Q83.24-19.8 82.44-19.98 81.64-20.15 80.39-20.2L80.39-20.2Q80.39-20.85 80.49-21.33 80.59-21.8 80.84-22.4L80.84-22.4 83.99-22.4 83.99-29Q84.99-29.25 85.97-29.8 86.94-30.35 87.69-31L87.69-31Q88.19-30.8 88.34-30.4 88.49-30 88.49-28.4L88.49-28.4 88.49-22.4 94.99-22.4Q94.99-21.9 94.89-21.33 94.79-20.75 94.54-20.2L94.54-20.2Q92.74-20.15 91.24-19.98 89.74-19.8 88.49-19.55L88.49-19.55 88.49-7.05Q88.49-5.4 88.84-4.33 89.19-3.25 89.84-2.75 90.49-2.25 91.39-2.25L91.39-2.25Q92.44-2.25 93.22-2.55 93.99-2.85 94.69-3.45L94.69-3.45Q95.34-2.7 95.44-1.8L95.44-1.8Q94.64-0.85 93.02-0.2 91.39 0.45 89.79 0.45ZM109.54 0.45L109.54 0.45Q105.99 0.45 103.64-1.15 101.29-2.75 100.12-5.48 98.94-8.2 98.94-11.45L98.94-11.45Q98.94-14.65 100.19-17.35 101.44-20.05 103.77-21.7 106.09-23.35 109.29-23.35L109.29-23.35Q112.54-23.35 114.52-21.95 116.49-20.55 117.47-18.2 118.44-15.85 118.64-13L118.64-13Q118.44-12 117.89-11.3L117.89-11.3Q117.04-11.3 115.34-11.3 113.64-11.3 111.49-11.28 109.34-11.25 107.09-11.18 104.84-11.1 102.84-11L102.84-11 102.84-13.55 113.44-13.55Q113.44-16.85 112.24-18.9 111.04-20.95 108.84-20.95L108.84-20.95Q107.64-20.95 106.49-20.23 105.34-19.5 104.59-17.68 103.84-15.85 103.84-12.5L103.84-12.5Q103.84-10.05 104.47-7.73 105.09-5.4 106.67-3.88 108.24-2.35 111.14-2.35L111.14-2.35Q112.79-2.35 114.39-3.1 115.99-3.85 117.24-5.25L117.24-5.25Q117.64-5.05 118.02-4.58 118.39-4.1 118.44-3.7L118.44-3.7Q116.74-1.45 114.52-0.5 112.29 0.45 109.54 0.45ZM133.44-33.95L133.44-33.95Q134.19-33.9 135.31-33.88 136.44-33.85 137.69-33.83 138.94-33.8 140.06-33.8 141.19-33.8 141.84-33.8L141.84-33.8 141.84-6.9Q141.84-5.05 142.19-4.05 142.54-3.05 143.54-2.65 144.54-2.25 146.39-2.25L146.39-2.25 146.39 0Q144.99 0 143.16 0 141.34 0 139.46 0.03 137.59 0.05 135.99 0.08 134.39 0.1 133.44 0.15L133.44 0.15Q133.44-0.55 133.49-1.07 133.54-1.6 133.69-2L133.69-2Q135.04-2.1 135.79-2.5 136.54-2.9 136.84-3.93 137.14-4.95 137.14-6.9L137.14-6.9 137.14-27.45Q137.14-29.15 136.84-30.05 136.54-30.95 135.79-31.35 135.04-31.75 133.69-31.8L133.69-31.8Q133.54-32.2 133.49-32.77 133.44-33.35 133.44-33.95ZM156.44-8.55L156.44-8.55Q157.19-8.35 157.69-8.08 158.19-7.8 158.64-7.35L158.64-7.35Q158.09-5.65 157.71-3.65 157.34-1.65 157.09 0.1L157.09 0.1Q156.14 0.05 154.51 0.05 152.89 0.05 150.81 0.03 148.74 0 146.39 0L146.39 0 146.39-2.25 146.69-2.25Q150.29-2.25 152.11-2.98 153.94-3.7 154.84-5.1 155.74-6.5 156.44-8.55ZM152.94-22.5L152.94-22.5Q152.89-21.25 152.86-19.8 152.84-18.35 152.84-17.05L152.84-17.05Q152.84-15.75 152.86-14.15 152.89-12.55 152.94-11.25L152.94-11.25Q152.29-11.25 151.74-11.3 151.19-11.35 150.64-11.5L150.64-11.5Q150.44-14.1 149.26-15.03 148.09-15.95 144.99-15.95L144.99-15.95 141.39-15.95 141.39-18.1 144.99-18.1Q148.09-18.1 149.29-18.9 150.49-19.7 150.54-22.15L150.54-22.15Q151.19-22.35 151.74-22.43 152.29-22.5 152.94-22.5ZM155.89-33.95L155.89-33.95Q155.99-32.85 156.14-31.4 156.29-29.95 156.49-28.55 156.69-27.15 156.94-26.05L156.94-26.05Q156.54-25.7 155.96-25.58 155.39-25.45 154.69-25.45L154.69-25.45Q154.59-27 153.89-28.45 153.19-29.9 151.46-30.85 149.74-31.8 146.49-31.8L146.49-31.8 140.79-31.8 141.84-33.8Q145.79-33.8 148.61-33.83 151.44-33.85 153.26-33.9 155.09-33.95 155.89-33.95ZM172.83 0.45L172.83 0.45Q172.43-0.55 171.61-2.48 170.78-4.4 169.76-6.75 168.73-9.1 167.71-11.38 166.68-13.65 165.91-15.38 165.13-17.1 164.83-17.75L164.83-17.75Q164.18-19.1 163.73-19.73 163.28-20.35 162.86-20.6 162.43-20.85 161.73-20.9L161.73-20.9Q161.53-21.55 161.48-21.95 161.43-22.35 161.43-23.05L161.43-23.05Q162.48-23 163.81-22.95 165.13-22.9 166.68-22.9L166.68-22.9Q167.73-22.9 168.86-22.93 169.98-22.95 171.01-22.98 172.03-23 172.83-23.05L172.83-23.05Q172.83-22.5 172.73-21.98 172.63-21.45 172.48-21L172.48-21Q169.98-20.8 169.53-20.2 169.08-19.6 170.03-17.55L170.03-17.55Q170.38-16.8 171.03-15.28 171.68-13.75 172.48-11.8 173.28-9.85 174.08-7.88 174.88-5.9 175.48-4.3L175.48-4.3 174.93-4.3Q176.23-7.55 177.28-10.15 178.33-12.75 179.23-15L179.23-15Q180.53-18.25 180.01-19.53 179.48-20.8 177.58-20.95L177.58-20.95Q177.33-21.45 177.18-22 177.03-22.55 177.03-23.05L177.03-23.05Q178.03-23 179.28-22.95 180.53-22.9 181.68-22.9L181.68-22.9Q182.83-22.9 184.13-22.95 185.43-23 186.33-23.05L186.33-23.05Q186.33-22.4 186.23-21.88 186.13-21.35 185.88-20.9L185.88-20.9Q185.08-20.75 184.48-20.2 183.88-19.65 183.31-18.55 182.73-17.45 181.88-15.45L181.88-15.45 175.13 0Q174.68 0.2 174.06 0.33 173.43 0.45 172.83 0.45ZM199.68 0.45L199.68 0.45Q196.13 0.45 193.78-1.15 191.43-2.75 190.26-5.48 189.08-8.2 189.08-11.45L189.08-11.45Q189.08-14.65 190.33-17.35 191.58-20.05 193.91-21.7 196.23-23.35 199.43-23.35L199.43-23.35Q202.68-23.35 204.66-21.95 206.63-20.55 207.61-18.2 208.58-15.85 208.78-13L208.78-13Q208.58-12 208.03-11.3L208.03-11.3Q207.18-11.3 205.48-11.3 203.78-11.3 201.63-11.28 199.48-11.25 197.23-11.18 194.98-11.1 192.98-11L192.98-11 192.98-13.55 203.58-13.55Q203.58-16.85 202.38-18.9 201.18-20.95 198.98-20.95L198.98-20.95Q197.78-20.95 196.63-20.23 195.48-19.5 194.73-17.68 193.98-15.85 193.98-12.5L193.98-12.5Q193.98-10.05 194.61-7.73 195.23-5.4 196.81-3.88 198.38-2.35 201.28-2.35L201.28-2.35Q202.93-2.35 204.53-3.1 206.13-3.85 207.38-5.25L207.38-5.25Q207.78-5.05 208.16-4.58 208.53-4.1 208.58-3.7L208.58-3.7Q206.88-1.45 204.66-0.5 202.43 0.45 199.68 0.45ZM220.83-21.15L216.33-10.7 216.33-16.25Q216.33-17.45 216.08-18.2 215.83-18.95 215.03-19.35 214.23-19.75 212.58-19.8L212.58-19.8Q212.58-20.35 212.68-20.8 212.78-21.25 213.03-21.65L213.03-21.65Q214.58-21.75 216.58-22.25 218.58-22.75 219.73-23.35L219.73-23.35Q220.18-23.2 220.5-22.73 220.83-22.25 220.83-21.15L220.83-21.15ZM235.63-14.95L235.63-6.35Q235.63-3.75 236.35-2.88 237.08-2 238.58-2L238.58-2Q238.73-1.55 238.78-1.05 238.83-0.55 238.83 0.15L238.83 0.15Q237.73 0.05 236.33 0.03 234.93 0 233.38 0L233.38 0Q232.38 0 231.28 0.03 230.18 0.05 229.2 0.08 228.23 0.1 227.43 0.15L227.43 0.15Q227.43-0.55 227.48-1.07 227.53-1.6 227.68-2L227.68-2Q229.48-2 230.3-2.93 231.13-3.85 231.13-6.35L231.13-6.35 231.13-13.95Q231.13-17.5 229.83-18.78 228.53-20.05 226.48-20.05L226.48-20.05Q225.18-20.05 223.88-19.23 222.58-18.4 221.7-16.57 220.83-14.75 220.83-11.7L220.83-11.7 220.83-6.35Q220.83-3.85 221.58-2.93 222.33-2 224.28-2L224.28-2Q224.43-1.55 224.48-1.05 224.53-0.55 224.53 0.15L224.53 0.15Q223.83 0.1 222.83 0.08 221.83 0.05 220.73 0.03 219.63 0 218.58 0L218.58 0Q217.58 0 216.48 0.03 215.38 0.05 214.38 0.08 213.38 0.1 212.63 0.15L212.63 0.15Q212.63-0.55 212.68-1.07 212.73-1.6 212.88-2L212.88-2Q214.83-2 215.58-2.93 216.33-3.85 216.33-6.35L216.33-6.35 216.33-16.25 220.83-21.15Q220.83-20.55 220.78-19.8 220.73-19.05 220.48-18.2L220.48-18.2Q220.63-18.45 220.78-18.78 220.93-19.1 221.23-19.5L221.23-19.5Q222.08-20.65 223.95-21.88 225.83-23.1 228.48-23.1L228.48-23.1Q230.38-23.1 232-22.33 233.63-21.55 234.63-19.78 235.63-18 235.63-14.95L235.63-14.95ZM251.03 0.45L251.03 0.45Q248.08 0.45 246.65-1.07 245.23-2.6 245.23-6L245.23-6 245.23-19.55Q244.48-19.8 243.68-19.98 242.88-20.15 241.63-20.2L241.63-20.2Q241.63-20.85 241.73-21.33 241.83-21.8 242.08-22.4L242.08-22.4 245.23-22.4 245.23-29Q246.23-29.25 247.2-29.8 248.18-30.35 248.93-31L248.93-31Q249.43-30.8 249.58-30.4 249.73-30 249.73-28.4L249.73-28.4 249.73-22.4 256.23-22.4Q256.23-21.9 256.13-21.33 256.03-20.75 255.78-20.2L255.78-20.2Q253.98-20.15 252.48-19.98 250.98-19.8 249.73-19.55L249.73-19.55 249.73-7.05Q249.73-5.4 250.08-4.33 250.43-3.25 251.08-2.75 251.73-2.25 252.63-2.25L252.63-2.25Q253.68-2.25 254.45-2.55 255.23-2.85 255.93-3.45L255.93-3.45Q256.58-2.7 256.68-1.8L256.68-1.8Q255.88-0.85 254.25-0.2 252.63 0.45 251.03 0.45ZM271.47 0.45L271.47 0.45Q268.07 0.45 265.52-1.03 262.97-2.5 261.57-5.18 260.17-7.85 260.17-11.45L260.17-11.45Q260.17-14.85 261.62-17.55 263.07-20.25 265.62-21.8 268.17-23.35 271.47-23.35L271.47-23.35Q275.02-23.35 277.55-21.85 280.07-20.35 281.42-17.68 282.77-15 282.77-11.45L282.77-11.45Q282.77-8.05 281.35-5.35 279.92-2.65 277.4-1.1 274.87 0.45 271.47 0.45ZM271.87-1.95L271.87-1.95Q274.87-1.95 276.32-4.42 277.77-6.9 277.77-10.85L277.77-10.85Q277.77-13.95 276.85-16.23 275.92-18.5 274.37-19.73 272.82-20.95 270.97-20.95L270.97-20.95Q268.07-20.95 266.65-18.6 265.22-16.25 265.22-12.5L265.22-12.5Q265.22-9.15 266.05-6.78 266.87-4.4 268.37-3.18 269.87-1.95 271.87-1.95ZM302.52-21.6L302.52-21.6Q302.47-20.4 302.45-19.05 302.42-17.7 302.62-16.4L302.62-16.4Q302.12-16.1 301.47-15.95 300.82-15.8 300.12-15.8L300.12-15.8Q300.02-17.2 299.3-18.45 298.57-19.7 297.37-20.5 296.17-21.3 294.52-21.3L294.52-21.3Q292.97-21.3 292.05-20.55 291.12-19.8 291.12-18.55L291.12-18.55Q291.12-17.7 291.5-17.05 291.87-16.4 293.15-15.68 294.42-14.95 297.07-13.9L297.07-13.9Q299.77-12.9 301.32-11.9 302.87-10.9 303.52-9.65 304.17-8.4 304.17-6.6L304.17-6.6Q304.17-4.5 302.97-2.9 301.77-1.3 299.7-0.43 297.62 0.45 295.02 0.45L295.02 0.45Q292.02 0.45 290.25-0.03 288.47-0.5 286.77-1.4L286.77-1.4Q286.87-2.2 286.9-3.35 286.92-4.5 286.92-5.65 286.92-6.8 286.82-7.6L286.82-7.6Q287.22-7.9 287.95-8.03 288.67-8.15 289.42-8.15L289.42-8.15Q289.82-5 291.37-3.45 292.92-1.9 295.52-1.9L295.52-1.9Q297.57-1.9 298.7-2.8 299.82-3.7 299.82-5.1L299.82-5.1Q299.82-6 299.4-6.65 298.97-7.3 297.82-7.95 296.67-8.6 294.42-9.5L294.42-9.5Q291.72-10.6 290.1-11.55 288.47-12.5 287.75-13.8 287.02-15.1 287.02-17.1L287.02-17.1Q287.02-18.7 287.82-19.88 288.62-21.05 289.9-21.83 291.17-22.6 292.62-22.98 294.07-23.35 295.32-23.35L295.32-23.35Q297.57-23.35 299.27-22.9 300.97-22.45 302.52-21.6Z" opacity="1" transform="matrix(1,0,0,1,0,0)" fill="#4d331f" class="slogan-text-1" data-fill-palette-color="quaternary" id="text-1"></path></svg></g></svg></g></svg></g></svg></g></svg></g></svg></g></svg></g><defs></defs></svg><rect width="320" height="360" fill="none" stroke="none" visibility="hidden"></rect></g></svg></g></svg>